<?xml version="1.0" standalone="no"?>
<!DOCTYPE svg PUBLIC "-//W3C//DTD SVG 20010904//EN"
 "http://www.w3.org/TR/2001/REC-SVG-20010904/DTD/svg10.dtd">
<svg version="1.0" xmlns="http://www.w3.org/2000/svg"
 width="414.000000pt" height="414.000000pt" viewBox="0 0 414.000000 414.000000"
 preserveAspectRatio="xMidYMid meet">
<metadata>
Created by potrace 1.11, written by Peter Selinger 2001-2013
</metadata>
<g transform="translate(0.000000,414.000000) scale(0.100000,-0.100000)"
fill="#000000" stroke="none">
<path d="M2010 4126 c-3 -2 -39 -6 -81 -7 -310 -9 -673 -130 -984 -327 -75
-48 -273 -210 -338 -276 -61 -62 -213 -251 -254 -315 -174 -270 -283 -568
-324 -881 -15 -118 -15 -423 1 -510 6 -36 12 -72 12 -80 1 -69 74 -324 131
-460 196 -467 549 -838 1012 -1061 214 -103 439 -169 645 -188 106 -9 470 -7
540 4 277 42 586 159 815 307 95 61 254 190 339 273 86 86 238 277 298 375 42
68 113 210 166 330 46 107 100 311 124 470 16 113 18 439 3 545 -61 417 -211
760 -468 1065 -326 389 -779 643 -1277 714 -103 15 -352 31 -360 22z m345
-956 c10 -11 16 -20 13 -20 -3 0 -13 9 -23 20 -10 11 -16 20 -13 20 3 0 13 -9
23 -20z m-559 -622 l29 -33 -32 29 c-31 28 -38 36 -30 36 2 0 16 -15 33 -32z
m-1106 8 c0 -2 -8 -10 -17 -17 -16 -13 -17 -12 -4 4 13 16 21 21 21 13z m2346
-458 l29 -33 -32 29 c-31 28 -38 36 -30 36 2 0 16 -15 33 -32z m454 29 c0 -2
-12 -14 -27 -28 l-28 -24 24 28 c23 25 31 32 31 24z m-2809 -24 c13 -16 12
-17 -3 -4 -17 13 -22 21 -14 21 2 0 10 -8 17 -17z m709 -326 c0 -2 -15 -16
-32 -33 l-33 -29 29 33 c28 30 36 37 36 29z m1406 -39 l29 -33 -32 29 c-18 17
-33 31 -33 33 0 8 8 1 36 -29z m879 -118 c10 -11 16 -20 13 -20 -3 0 -13 9
-23 20 -10 11 -16 20 -13 20 3 0 13 -9 23 -20z m-3195 6 c0 -2 -8 -10 -17 -17
-16 -13 -17 -12 -4 4 13 16 21 21 21 13z"/>
</g>
</svg>
